REM DIRINDEX 1\2,1\3,1\4,1\5
REM DIRNAME folder01,folder02,folder03,folder04,folder05
TITLE ""
FILE "1Q_j_2241-2254.mp3" MP3
  TRACK 01 AUDIO
    TITLE "3:cjc004_0422"
    INDEX 01 00:00:00
  TRACK 02 AUDIO
    TITLE "0:"
    INDEX 01 00:01:17
  TRACK 03 AUDIO
    TITLE "4:cjc004_0423"
    INDEX 01 00:01:50
  TRACK 04 AUDIO
    TITLE "0:"
    INDEX 01 00:03:29
  TRACK 05 AUDIO
    TITLE "5:cjc004_0424"
    INDEX 01 00:03:57
  TRACK 06 AUDIO
    TITLE "0:"
    INDEX 01 00:07:64
  TRACK 07 AUDIO
    TITLE "3:cjc004_0425"
    INDEX 01 00:08:50
  TRACK 08 AUDIO
    TITLE "0:"
    INDEX 01 00:09:69
  TRACK 09 AUDIO
    TITLE "4:cjc004_0426"
    INDEX 01 00:10:23
  TRACK 10 AUDIO
    TITLE "0:"
    INDEX 01 00:11:46
  TRACK 11 AUDIO
    TITLE "5:cjc004_0427"
    INDEX 01 00:12:01
  TRACK 12 AUDIO
    TITLE "0:"
    INDEX 01 00:15:68
  TRACK 13 AUDIO
    TITLE "3:cjc004_0428"
    INDEX 01 00:16:49
  TRACK 14 AUDIO
    TITLE "0:"
    INDEX 01 00:18:15
  TRACK 15 AUDIO
    TITLE "4:cjc004_0429"
    INDEX 01 00:18:44
  TRACK 16 AUDIO
    TITLE "0:"
    INDEX 01 00:19:67
  TRACK 17 AUDIO
    TITLE "5:cjc004_0430"
    INDEX 01 00:20:14
  TRACK 18 AUDIO
    TITLE "0:"
    INDEX 01 00:29:17
  TRACK 19 AUDIO
    TITLE "3:cjc004_0431"
    INDEX 01 00:29:70
  TRACK 20 AUDIO
    TITLE "0:"
    INDEX 01 00:31:18
  TRACK 21 AUDIO
    TITLE "4:cjc004_0432"
    INDEX 01 00:31:51
  TRACK 22 AUDIO
    TITLE "0:"
    INDEX 01 00:33:36
  TRACK 23 AUDIO
    TITLE "5:cjc004_0433"
    INDEX 01 00:33:64
  TRACK 24 AUDIO
    TITLE "0:"
    INDEX 01 00:39:09
  TRACK 25 AUDIO
    TITLE "3:cjc004_0434"
    INDEX 01 00:39:64
  TRACK 26 AUDIO
    TITLE "0:"
    INDEX 01 00:41:12
  TRACK 27 AUDIO
    TITLE "4:cjc004_0435"
    INDEX 01 00:41:45
  TRACK 28 AUDIO
    TITLE "0:"
    INDEX 01 00:42:51
  TRACK 29 AUDIO
    TITLE "5:cjc004_0436"
    INDEX 01 00:43:07
  TRACK 30 AUDIO
    TITLE "0:"
    INDEX 01 00:50:11
  TRACK 31 AUDIO
    TITLE "3:cjc004_0437"
    INDEX 01 00:50:66
  TRACK 32 AUDIO
    TITLE "0:"
    INDEX 01 00:52:32
  TRACK 33 AUDIO
    TITLE "4:cjc004_0438"
    INDEX 01 00:52:67
  TRACK 34 AUDIO
    TITLE "0:"
    INDEX 01 00:54:29
  TRACK 35 AUDIO
    TITLE "5:cjc004_0439"
    INDEX 01 00:54:54
  TRACK 36 AUDIO
    TITLE "0:"
    INDEX 01 00:59:28
  TRACK 37 AUDIO
    TITLE "3:cjc004_0440"
    INDEX 01 01:00:06
  TRACK 38 AUDIO
    TITLE "0:"
    INDEX 01 01:01:23
  TRACK 39 AUDIO
    TITLE "4:cjc004_0441"
    INDEX 01 01:01:52
  TRACK 40 AUDIO
    TITLE "0:"
    INDEX 01 01:04:00
  TRACK 41 AUDIO
    TITLE "5:cjc004_0442"
    INDEX 01 01:04:25
  TRACK 42 AUDIO
    TITLE "0:"
    INDEX 01 01:08:38
  TRACK 43 AUDIO
    TITLE "3:cjc004_0443"
    INDEX 01 01:09:18
  TRACK 44 AUDIO
    TITLE "0:"
    INDEX 01 01:10:30
  TRACK 45 AUDIO
    TITLE "4:cjc004_0444"
    INDEX 01 01:10:59
  TRACK 46 AUDIO
    TITLE "0:"
    INDEX 01 01:12:30
  TRACK 47 AUDIO
    TITLE "5:cjc004_0445"
    INDEX 01 01:12:54
  TRACK 48 AUDIO
    TITLE "0:"
    INDEX 01 01:16:56
  TRACK 49 AUDIO
    TITLE "3:cjc004_0446"
    INDEX 01 01:17:30
  TRACK 50 AUDIO
    TITLE "0:"
    INDEX 01 01:18:49
  TRACK 51 AUDIO
    TITLE "4:cjc004_0447"
    INDEX 01 01:19:01
  TRACK 52 AUDIO
    TITLE "0:"
    INDEX 01 01:20:36
  TRACK 53 AUDIO
    TITLE "5:cjc004_0448"
    INDEX 01 01:20:63
  TRACK 54 AUDIO
    TITLE "0:"
    INDEX 01 01:24:71
  TRACK 55 AUDIO
    TITLE "3:cjc004_0449"
    INDEX 01 01:25:51
  TRACK 56 AUDIO
    TITLE "0:"
    INDEX 01 01:27:03
  TRACK 57 AUDIO
    TITLE "4:cjc004_0450"
    INDEX 01 01:27:28
  TRACK 58 AUDIO
    TITLE "0:"
    INDEX 01 01:28:61
  TRACK 59 AUDIO
    TITLE "5:cjc004_0451"
    INDEX 01 01:29:17
  TRACK 60 AUDIO
    TITLE "0:"
    INDEX 01 01:33:42
  TRACK 61 AUDIO
    TITLE "3:cjc004_0452"
    INDEX 01 01:34:26
  TRACK 62 AUDIO
    TITLE "0:"
    INDEX 01 01:35:43
  TRACK 63 AUDIO
    TITLE "4:cjc004_0453"
    INDEX 01 01:36:01
  TRACK 64 AUDIO
    TITLE "0:"
    INDEX 01 01:37:44
  TRACK 65 AUDIO
    TITLE "5:cjc004_0454"
    INDEX 01 01:37:73
  TRACK 66 AUDIO
    TITLE "0:"
    INDEX 01 01:42:71
  TRACK 67 AUDIO
    TITLE "3:cjc004_0455"
    INDEX 01 01:43:52
  TRACK 68 AUDIO
    TITLE "0:"
    INDEX 01 01:44:73
  TRACK 69 AUDIO
    TITLE "4:cjc004_0456"
    INDEX 01 01:45:26
  TRACK 70 AUDIO
    TITLE "0:"
    INDEX 01 01:47:11
  TRACK 71 AUDIO
    TITLE "5:cjc004_0457"
    INDEX 01 01:47:39
  TRACK 72 AUDIO
    TITLE "0:"
    INDEX 01 01:53:72
  TRACK 73 AUDIO
    TITLE "3:cjc004_0458"
    INDEX 01 01:54:52
  TRACK 74 AUDIO
    TITLE "0:"
    INDEX 01 01:56:02
  TRACK 75 AUDIO
    TITLE "4:cjc004_0459"
    INDEX 01 01:56:37
  TRACK 76 AUDIO
    TITLE "0:"
    INDEX 01 01:57:39
  TRACK 77 AUDIO
    TITLE "5:cjc004_0460"
    INDEX 01 01:57:70
  TRACK 78 AUDIO
    TITLE "0:"
    INDEX 01 02:02:22
  TRACK 79 AUDIO
    TITLE "3:cjc004_0461"
    INDEX 01 02:03:00
  TRACK 80 AUDIO
    TITLE "0:"
    INDEX 01 02:04:27
  TRACK 81 AUDIO
    TITLE "4:cjc004_0462"
    INDEX 01 02:04:55
  TRACK 82 AUDIO
    TITLE "0:"
    INDEX 01 02:05:66
  TRACK 83 AUDIO
    TITLE "5:cjc004_0463"
    INDEX 01 02:06:12
  TRACK 84 AUDIO
    TITLE "0:"
    INDEX 01 02:11:15
